<svg id="ejgS5BP8rQp1" xmlns="http://www.w3.org/2000/svg" xmlns:xlink="http://www.w3.org/1999/xlink" viewBox="0 0 640 480" shape-rendering="geometricPrecision" text-rendering="geometricPrecision" width="640" height="480"><g transform="translate(-1.192843-5.964214)"><g transform="matrix(1.8 0 0 1.8-321.846981-271.480813)"><ellipse rx="121.144674" ry="121.144674" transform="translate(358.139413 287.59792)" fill="#C63F25" stroke-width="0"/><line x1="-188.871224" y1="97.29323" x2="188.871225" y2="-97.297297" transform="matrix(.770636 0.067422-.097282 1.111943 357.139649 290.181382)" fill="none" stroke="#C63F25" stroke-width="14"/><polygon points="-1.725648,-3.83997 34.166959,55.739321 34.166961,55.739318 -37.618256,55.739318 -37.618258,55.739319 -1.725648,-3.83997" transform="matrix(.341418 0.525737-.633445 0.411364 529.182829 184.958924)" fill="#C63F25" stroke-width="0"/><polygon points="-1.725648,-3.83997 34.166959,51.77709 34.166961,51.777088 -37.618256,51.777088 -37.618258,51.777089 -1.725648,-3.83997" transform="matrix(.341418 0.525737 0.706802-.459003 185.77185 397.540674)" fill="#C63F25" stroke-width="0"/><polygon points="0,-1.27186 1.209611,-0.393026 0.747581,1.028956 -0.747581,1.028956 -1.209611,-0.393026 0,-1.27186" transform="matrix(-1 0 0-1 482.162162 128.45787)" fill="#C63F25" stroke-width="0"/></g></g></svg>